<?xml version="1.0" encoding="UTF-8" standalone="no"?>
<svg width="74px" height="58px" viewBox="0 0 74 58" version="1.1" xmlns="http://www.w3.org/2000/svg" xmlns:xlink="http://www.w3.org/1999/xlink">
    <!-- Generator: Sketch 40.2 (33826) - http://www.bohemiancoding.com/sketch -->
    <title>W-Icon</title>
    <desc>Created with Sketch.</desc>
    <defs>
        <filter x="-50%" y="-50%" width="200%" height="200%" filterUnits="objectBoundingBox" id="filter-1">
            <feOffset dx="0" dy="2" in="SourceAlpha" result="shadowOffsetOuter1"></feOffset>
            <feGaussianBlur stdDeviation="2" in="shadowOffsetOuter1" result="shadowBlurOuter1"></feGaussianBlur>
            <feColorMatrix values="0 0 0 0 0   0 0 0 0 0   0 0 0 0 0  0 0 0 0.5 0" type="matrix" in="shadowBlurOuter1" result="shadowMatrixOuter1"></feColorMatrix>
            <feMerge>
                <feMergeNode in="shadowMatrixOuter1"></feMergeNode>
                <feMergeNode in="SourceGraphic"></feMergeNode>
            </feMerge>
        </filter>
        <linearGradient x1="0%" y1="48.7935469%" x2="100%" y2="51.7533105%" id="linearGradient-2">
            <stop stop-color="#FF4848" offset="0%"></stop>
            <stop stop-color="#7C0E0E" offset="100%"></stop>
        </linearGradient>
        <linearGradient x1="0%" y1="25.5932705%" x2="136.981315%" y2="88.6705338%" id="linearGradient-3">
            <stop stop-color="#781616" offset="0%"></stop>
            <stop stop-color="#C22929" offset="100%"></stop>
        </linearGradient>
        <linearGradient x1="55.7037262%" y1="100%" x2="49.094599%" y2="24.5830834%" id="linearGradient-4">
            <stop stop-color="#E86D6D" offset="0%"></stop>
            <stop stop-color="#830B0B" offset="100%"></stop>
        </linearGradient>
        <linearGradient x1="50.1833324%" y1="0.916772959%" x2="69.4244638%" y2="97.134088%" id="linearGradient-5">
            <stop stop-color="#9B4343" offset="0%"></stop>
            <stop stop-color="#A10303" offset="100%"></stop>
        </linearGradient>
        <linearGradient x1="0%" y1="49.2875561%" x2="75.9673654%" y2="49.2875561%" id="linearGradient-6">
            <stop stop-color="#DA4545" offset="0%"></stop>
            <stop stop-color="#A90C0C" offset="100%"></stop>
        </linearGradient>
        <linearGradient x1="50%" y1="0%" x2="50%" y2="100%" id="linearGradient-7">
            <stop stop-color="#BF1414" offset="0%"></stop>
            <stop stop-color="#871C1C" offset="100%"></stop>
        </linearGradient>
        <linearGradient x1="69.8184766%" y1="0.00761524207%" x2="23.9429898%" y2="50%" id="linearGradient-8">
            <stop stop-color="#F38686" offset="0%"></stop>
            <stop stop-color="#C30000" offset="100%"></stop>
        </linearGradient>
        <linearGradient x1="0%" y1="24.6072387%" x2="53.4878237%" y2="75.3309058%" id="linearGradient-9">
            <stop stop-color="#F62C2C" offset="0%"></stop>
            <stop stop-color="#890C0C" offset="100%"></stop>
        </linearGradient>
        <linearGradient x1="49.6629247%" y1="0.0685232623%" x2="50.3272135%" y2="98.4706308%" id="linearGradient-10">
            <stop stop-color="#640606" offset="0%"></stop>
            <stop stop-color="#BE1A1A" offset="100%"></stop>
        </linearGradient>
        <linearGradient x1="63.5606609%" y1="36.4037657%" x2="25.4587667%" y2="100%" id="linearGradient-11">
            <stop stop-color="#C93131" offset="0%"></stop>
            <stop stop-color="#890D0D" offset="100%"></stop>
        </linearGradient>
        <linearGradient x1="100%" y1="48.7351069%" x2="27.675861%" y2="50.3878632%" id="linearGradient-12">
            <stop stop-color="#FF6E6E" offset="0%"></stop>
            <stop stop-color="#BB1A1A" offset="100%"></stop>
        </linearGradient>
    </defs>
    <g id="Page-1" stroke="none" stroke-width="1" fill="none" fill-rule="evenodd">
        <g id="W-Icon" filter="url(#filter-1)" transform="translate(3.000000, 1.000000)">
            <g id="W">
                <g id="Artboard">
                    <g id="W-Icon" transform="translate(34.753363, 27.958652) rotate(1.000000) translate(-34.753363, -27.958652) translate(1.253363, 0.958652)">
                        <g id="W" transform="translate(33.164465, 0.000000)">
                            <g id="Right">
                                <polygon id="Path-3-Copy" fill="url(#linearGradient-2)" points="17.2107974 28.0889027 24.9843135 38.3509519 24.3863508 10.9854874 17.2107974 0.0393016183"></polygon>
                                <polygon id="Path-5" fill="#C01111" points="17.2591921 0.110438312 24.3677492 10.9639861 31.951855 0.574624133"></polygon>
                                <polygon id="Path-8" fill="url(#linearGradient-3)" points="0.00607504048 6.10254403 0.372007012 30.7794695 17.2470111 28.2064153"></polygon>
                                <polygon id="Path-9" fill="url(#linearGradient-4)" points="0.0127174493 30.5995344 24.6855477 37.1851851 17.2689558 28.1529017"></polygon>
                                <polygon id="Path-10" fill="#911414" transform="translate(13.332566, 39.211979) rotate(-8.000000) translate(-13.332566, -39.211979) " points="15.1749413 49.5599048 16.574555 47.9565621 19.4526127 44.659572 21.7739709 42.0003149 23.5625516 39.9513869 24.7689481 38.5693863 1.89618443 28.864053"></polygon>
                                <polygon id="Path-11" fill="url(#linearGradient-5)" transform="translate(24.156056, 43.072768) rotate(-3.000000) translate(-24.156056, -43.072768) " points="24.6948761 36.7663839 16.2207889 48.810751 32.091324 49.3791529"></polygon>
                                <polygon id="Path-12" fill="url(#linearGradient-6)" points="23.9977577 11.0229494 31.9435608 0.544723345 32.4190668 49.0051456 24.7290975 37.2473275"></polygon>
                            </g>
                        </g>
                        <g id="W-Copy" transform="translate(17.405381, 26.560702) scale(-1, 1) rotate(2.000000) translate(-17.405381, -26.560702) translate(0.905381, 0.560702)">
                            <g id="left">
                                <polygon id="Path-3-Copy" fill="url(#linearGradient-7)" points="17.4872614 28.2909851 25.4839998 38.3509519 24.8740778 10.9854874 17.5550134 0.0393016183"></polygon>
                                <polygon id="Path-5" fill="url(#linearGradient-8)" points="24.8691356 11.1992918 32.9785632 0.394637696 17.5379843 0.0527315483"></polygon>
                                <polygon id="Path-8" fill="url(#linearGradient-9)" points="0.00619654129 6.10254403 0.379447153 30.7794695 17.5919513 28.2064153"></polygon>
                                <polygon id="Path-9" fill="url(#linearGradient-10)" points="0.0129717982 30.5995344 25.1792587 37.1851851 17.6143349 28.1529017"></polygon>
                                <polygon id="Path-10" fill="#911414" transform="translate(13.599218, 39.211979) rotate(-8.000000) translate(-13.599218, -39.211979) " points="15.4784401 49.5599049 16.9060461 47.9565622 19.8416649 44.6595721 22.2094504 42.000315 24.0338026 39.951387 25.2643271 38.5693864 1.93410813 28.8640531"></polygon>
                                <polygon id="Path-11" fill="url(#linearGradient-11)" transform="translate(24.624422, 43.255121) rotate(-3.000000) translate(-24.624422, -43.255121) " points="25.1982449 36.7674103 16.6049843 48.7509432 32.6438596 49.7428324"></polygon>
                                <polygon id="Path-12" fill="url(#linearGradient-12)" points="24.8806793 10.8568544 32.9853985 0.3786284 32.9500401 49.2603893 25.2711537 37.56389"></polygon>
                            </g>
                        </g>
                    </g>
                </g>
            </g>
        </g>
    </g>
</svg>